HIERARCHY
ROOT Hips
{
  OFFSET 279.157 85.6768 304.565
  CHANNELS 6 Xposition Yposition Zposition Zrotation Xrotation Yrotation
  JOINT LeftUpLeg
  {
    OFFSET 8.64259 1.95398 -2.38835
    CHANNELS 3 Zrotation Xrotation Yrotation
    JOINT LeftLeg
    {
      OFFSET 43.7702 0 0
      CHANNELS 3 Zrotation Xrotation Yrotation
      JOINT LeftFoot
      {
        OFFSET 40.6238 0 0
        CHANNELS 3 Zrotation Xrotation Yrotation
        JOINT LeftToeBase
        {
          OFFSET 12.7242 0 0
          CHANNELS 3 Zrotation Xrotation Yrotation
          End Site
          {
            OFFSET 0 0 0
          }
        }
      }
    }
  }
  JOINT RightUpLeg
  {
    OFFSET -8.2249 1.95398 -2.59336
    CHANNELS 3 Zrotation Xrotation Yrotation
    JOINT RightLeg
    {
      OFFSET 43.5653 0 0
      CHANNELS 3 Zrotation Xrotation Yrotation
      JOINT RightFoot
      {
        OFFSET 40.6238 0 0
        CHANNELS 3 Zrotation Xrotation Yrotation
        JOINT RightToeBase
        {
          OFFSET 12.7242 0 0
          CHANNELS 3 Zrotation Xrotation Yrotation
          End Site
          {
            OFFSET 0 0 0
          }
        }
      }
    }
  }
  JOINT Spine
  {
    OFFSET 0.165834 0.87714 6.61349
    CHANNELS 3 Zrotation Xrotation Yrotation
    JOINT Spine1
    {
      OFFSET 7.38963 1.71661e-005 0
      CHANNELS 3 Zrotation Xrotation Yrotation
      JOINT Spine2
      {
        OFFSET 11.9445 1.14441e-005 0
        CHANNELS 3 Zrotation Xrotation Yrotation
        JOINT Spine3
        {
          OFFSET 14.7254 4.19617e-005 0
          CHANNELS 3 Zrotation Xrotation Yrotation
          JOINT Spine4
          {
            OFFSET 10.9679 0 0
            CHANNELS 3 Zrotation Xrotation Yrotation
            JOINT RightShoulder
            {
              OFFSET 2.46616 -1.6653 3.69651
              CHANNELS 3 Zrotation Xrotation Yrotation
              JOINT RightArm
              {
                OFFSET 13.0012 0 0
                CHANNELS 3 Zrotation Xrotation Yrotation
                JOINT RightForeArm
                {
                  OFFSET 28.7848 1.52588e-005 0
                  CHANNELS 3 Zrotation Xrotation Yrotation
                  JOINT RightHand
                  {
                    OFFSET 26.5688 1.52588e-005 0
                    CHANNELS 3 Zrotation Xrotation Yrotation
                    End Site
                    {
                      OFFSET 0 0 0
                    }
                  }
                }
              }
            }
            JOINT LeftShoulder
            {
              OFFSET 2.38034 -1.29275 -3.7523
              CHANNELS 3 Zrotation Xrotation Yrotation
              JOINT LeftArm
              {
                OFFSET 16.3182 6.10351e-005 0
                CHANNELS 3 Zrotation Xrotation Yrotation
                JOINT LeftForeArm
                {
                  OFFSET 27.0901 0 0
                  CHANNELS 3 Zrotation Xrotation Yrotation
                  JOINT LeftHand
                  {
                    OFFSET 24.5451 1.52588e-005 0
                    CHANNELS 3 Zrotation Xrotation Yrotation
                    End Site
                    {
                      OFFSET 0 0 0
                    }
                  }
                }
              }
            }
            JOINT Neck
            {
              OFFSET 5.0226 -0.0266342 0
              CHANNELS 3 Zrotation Xrotation Yrotation
              JOINT Head
              {
                OFFSET 6.69364 2.86102e-005 0
                CHANNELS 3 Zrotation Xrotation Yrotation
                End Site
                {
                  OFFSET 0 0 0
                }
              }
            }
          }
        }
      }
    }
  }
}
MOTION
Frames:	9
Frame Time:	0.0416667
246.505 97.0131 230.328 -91.416 43.1136 -92.2655 -175.493 26.125 84.7328 -28.1977 16.9217 -3.90622 60.0335 -1.28145 0.142926 16.6735 -7.03937 1.16062 165.067 -15.7098 86.0509 -79.2081 -5.25938 0.836835 61.4957 -1.867 -4.05349 106.063 -13.2995 23.2146 2.46887 8.16025 -88.6944 10.5053 5.51674 2.10381 -1.15521 5.60397 1.85833 -23.7477 4.6294 3.66672 -3.73503 4.62939 3.6667 91.1462 -21.3284 -107.976 41.622 -12.0736 0.933796 -32.1313 -21.2637 -61.5254 -27.5785 -0.547652 -11.8122 -88.6496 -47.7249 80.3018 -9.85038 28.5472 23.6192 44.5604 -18.057 -94.976 13.7657 -2.10605 -18.5162 22.5271 -13.0551 -13.5685 -9.36546 -8.26149 2.67483 
238.164 94.7335 222.413 -92.2565 39.2173 -95.7642 -172.992 25.4019 79.9837 -44.0111 20.15 -4.78072 71.0788 7.47447 3.30709 20.2011 -5.40155 2.25176 161.261 -3.23891 82.4851 -99.8892 -1.61958 -0.986039 62.9156 -4.25555 -3.57446 109.097 -15.8124 20.1504 1.3127 8.38729 -88.1046 10.0391 3.4785 3.4793 -1.63137 3.62819 3.3229 -24.1482 2.27303 4.3627 -4.13551 2.27304 4.36271 91.3051 -25.3406 -105.885 48.498 -15.3502 8.92418 -28.2842 -21.6592 -59.5489 -45.5882 -0.436214 -9.52314 -91.5199 -54.8196 77.5659 1.74517 22.2801 -1.86092 43.628 -17.0193 -97.0874 16.2307 -1.70015 -14.1423 25.0512 -12.8101 -17.7186 -8.53656 -6.27311 4.44015 
230.144 92.8945 215.367 -92.5183 35.8761 -100.561 -172.997 18.7964 75.9122 -47.8096 21.3106 -5.16435 78.1995 13.2096 3.13857 24.7775 -3.05343 3.24917 163.471 16.8022 81.7591 -115.828 -15.6413 -3.41142 50.3366 2.53621 -10.441 110.522 -23.0714 10.1131 0.133512 8.61761 -87.4787 9.57836 1.40325 4.88631 -2.10081 1.61667 4.82004 -24.5621 -0.127982 5.08177 -4.54941 -0.127995 5.08175 93.8742 -22.2982 -101.295 59.1533 -16.0672 19.8252 -24.8612 -23.9597 -53.367 -46.0985 1.8654 -15.9924 -92.0876 -52.591 76.2323 0.608857 12.1369 -31.349 55.6563 -13.4001 -97.219 16.4576 -0.64442 -9.2132 30.1771 -11.5149 -18.2531 -10.3942 -3.87667 2.96273 
221.672 92.5987 207.996 -90.8844 36.8145 -99.3999 -172.904 10.7707 80.0012 -46.1822 18.4972 -4.24866 86.4796 17.6003 -1.58209 25.1685 -3.43004 5.43529 167.703 36.12 86.9731 -118.81 -41.3018 -5.13219 23.6419 26.2971 -21.3942 106.938 -31.6873 -5.42125 -0.729616 8.41481 -87.8678 10.0311 -0.484134 4.27298 -1.64676 -0.295786 4.2901 -24.1332 -1.74495 3.93091 -4.1205 -1.74497 3.9309 96.1764 -18.0302 -97.2317 66.2759 -22.9847 33.0454 -32.8972 -25.2049 -57.9496 -41.2641 0.488394 -14.5707 -92.1707 -44.1012 73.912 -6.62199 2.68171 -48.5335 53.6767 -12.4029 -98.9191 14.5396 -1.39302 -14.1652 32.95 -6.63475 -15.5443 -13.1818 0.150024 2.52296 
212.274 93.8468 199.713 -89.3659 38.999 -95.4552 -171.679 -0.898478 85.4922 -36.2688 19.4581 -3.39563 85.7837 19.3555 1.47501 26.0896 -1.67885 0.932475 171.772 43.3123 94.672 -113.29 -36.8987 -4.53945 39.5155 16.8961 -37.7566 73.1415 -16.6789 -5.01666 -1.70421 8.15322 -88.7125 10.5972 -2.80226 2.81184 -1.07404 -2.67582 2.93238 -23.6212 -3.51757 1.83948 -3.60856 -3.51756 1.83948 96.1633 -14.4452 -98.4397 69.2006 -26.7441 45.0465 -36.2782 -22.2401 -59.8427 -40.6703 0.629426 -15.2722 -88.5846 -34.2701 77.2561 -9.70825 -5.98317 -56.6642 47.3368 -13.2091 -103.058 15.1799 -1.73227 -14.9748 35.0874 0.221753 -12.6354 -15.3663 5.61631 2.61721 
201.601 96.9962 190.658 -89.7878 40.7616 -91.189 -171.633 -13.8891 89.8574 -21.0912 21.0762 -1.23624 66.6757 6.90725 4.08896 36.5369 3.68562 2.97451 177.684 42.1578 95.9243 -97.4862 -14.5054 -3.61818 66.2525 -7.82941 -24.5169 29.5967 -0.961704 7.74983 -2.42026 8.18111 -89.493 10.5506 -4.5877 1.42132 -1.11319 -4.5207 1.6222 -23.7139 -4.80235 -0.0262924 -3.70128 -4.80235 -0.0262971 97.0996 -11.3646 -96.8071 67.7863 -25.8929 50.7736 -36.843 -23.8721 -59.0316 -39.4638 0.998671 -17.009 -85.3863 -21.0375 79.9375 -14.5142 -9.0467 -56.1258 46.9207 -13.4693 -104.681 17.1176 -2.31811 -17.3121 37.7527 5.79804 -11.4697 -18.678 10.3146 4.23448 
190.521 100.119 180.957 -86.7044 42.2857 -88.4729 -171.583 -22.0787 92.8598 -9.03597 22.7325 1.58983 50.481 -4.38518 1.28403 23.7495 -3.22528 0.788685 -179.492 42.0964 97.9544 -73.8094 1.14569 -2.78744 77.0865 -9.3571 -2.53038 16.6701 1.88909 9.65555 -2.83595 7.92232 -90.6413 11.0299 -5.94279 -0.700169 -0.627371 -5.96784 -0.437006 -23.2577 -5.4568 -2.45895 -3.24509 -5.4568 -2.45895 98.3592 -3.62062 -96.2755 71.5514 -25.0499 55.3137 -35.1681 -23.7058 -56.1399 -43.7044 1.19834 -16.264 -84.1512 -12.1372 79.808 -16.1862 -10.3458 -50.9065 47.1589 -13.0925 -104.665 17.3104 -2.41512 -17.8059 39.9905 10.9586 -7.58989 -24.5945 12.9918 5.7328 
179.874 101.187 171.093 -82.3975 43.1042 -88.4687 -169.55 -23.1913 95.685 -12.923 15.9625 1.79032 54.0681 -2.59251 1.63588 17.4552 -7.55483 3.8168 -178.971 40.479 99.1159 -47.0698 0.350851 -1.42874 73.8269 -7.5187 -1.67994 20.9426 1.31515 6.81206 -2.94216 7.62486 -91.5243 11.5654 -6.56612 -2.36079 -0.090513 -6.66363 -2.06843 -22.7106 -5.55288 -4.22899 -2.69793 -5.55289 -4.22899 99.0793 4.22752 -96.714 77.9079 -22.1017 59.386 -33.4349 -16.5257 -55.0344 -46.1302 3.47458 -19.9869 -83.6241 -5.95118 79.0557 -14.1244 -9.91642 -50.7512 47.3719 -9.87217 -100.253 18.3661 -2.90593 -19.5829 34.9186 13.9989 -7.34736 -22.9671 14.7106 10.634 
169.759 100.682 160.935 -83.275 41.7058 -88.8279 -166.029 -26.123 98.8218 -21.1228 9.73327 0.376432 58.1312 -1.21817 1.3353 20.11 -6.02085 3.96179 -179.058 31.0725 96.6134 -15.9576 -4.53557 -0.126801 65.2707 -5.47603 -2.47975 23.8662 1.02703 3.79319 -3.21424 7.62132 -91.4773 11.5738 -7.08533 -2.21351 -0.0791628 -7.1758 -1.8981 -22.7213 -6.09201 -4.24639 -2.70871 -6.092 -4.24638 99.265 2.41805 -94.8726 74.8358 -20.3335 58.8534 -39.46 -13.0308 -61.2137 -32.9353 3.91376 -29.5568 -83.2135 -3.80612 79.3551 -10.0668 -6.03974 -52.4565 47.617 -8.03557 -96.5952 11.4942 -2.28446 -22.2674 30.4116 13.3306 -11.4973 -21.5064 14.9924 14.3993 
